# xmcd
#
# Track frame offsets:
#	150
#	12672
#	25785
#	37916
#	47340
#	59256
#	67364
#	81600
#	91047
#	100378
#
# Disc length: 1477 seconds
#
# Revision: 1
# Processed by: cddbd v1.5.1PL0 Copyright (c) Steve Scherf et al.
# Submitted via: audiograbber 1.83.01
#
DISCID=7f05c30a
DTITLE=Porter Wagoner and Dolly Parton - Burning the Midnight Oil
DYEAR=1900
DGENRE=
TTITLE0=More Than Words Can Tell
TTITLE1=The Right Combination
TTITLE2=I've Been This Way Too Long
TTITLE3=In Each Love Some Pain Must Fall
TTITLE4=Her and the Car and the Mobile Home
TTITLE5=Burning the Midnight Oil
TTITLE6=Somewhere Along the Way
TTITLE7=On and On
TTITLE8=Through Thick and Thin
TTITLE9=The Fog Has Lifted
EXTD=
EXTT0=
EXTT1=
EXTT2=
EXTT3=
EXTT4=
EXTT5=
EXTT6=
EXTT7=
EXTT8=
EXTT9=
PLAYORDER=
